<svg width="32" height="32" viewBox="0 0 32 32" fill="none" xmlns="http://www.w3.org/2000/svg">
<path d="M27.3158 27.3136C33.5641 21.0653 33.5641 10.9347 27.3158 4.6864C21.0675 -1.56193 10.9369 -1.56193 4.6886 4.6864C-1.55973 10.9347 -1.55973 21.0653 4.6886 27.3136C10.9369 33.5619 21.0675 33.5619 27.3158 27.3136Z" fill="#3DC575"/>
<path d="M12.3604 23.4924C12.5175 23.6496 12.7309 23.738 12.9532 23.738C13.1756 23.738 13.389 23.6496 13.5461 23.4924L24.9727 12.0659C25.1298 11.9087 25.2182 11.6953 25.2182 11.473C25.2182 11.2507 25.1298 11.0373 24.9727 10.8801L22.602 8.50944C22.2743 8.18175 21.7439 8.18175 21.4171 8.50944L12.9541 16.9724L10.5835 14.6017C10.4263 14.4446 10.2129 14.3562 9.99058 14.3562C9.76825 14.3562 9.55484 14.4446 9.39769 14.6017L7.02702 16.9724C6.69933 17.3001 6.69933 17.8305 7.02702 18.1573L12.3604 23.4924Z" fill="white"/>
</svg>
